PathFileType	4	(X/Y/Z)	c:/Users/goper/Files/vsCode/490R/osim_files/A04/A04_SSWS_03.trc
DataRate	CameraRate	NumFrames	NumMarkers	Units                	OrigDataRate	OrigDataStartFrame	OrigNumFrames
120.00	120.00	5	36	mm	120.0	751	2000
                Frame#	Time	LPSIS			LASIS			LTH1			LTH2			LTH3			LTH4			LLFE			LMFE			LSH1			LSH2			LSH3			LSH4			LLMAL			LMMAL			LCAL			LMTP5			LTOE			LMTP1			RPSIS			RASIS			RTH1			RTH2			RTH3			RTH4			RLFE			RMFE			RSH1			RSH2			RSH3			RSH4			RLMAL			RMMAL			RCAL			RMTP1			RTOE			RMTP5		
		X1	Y1	Z1	X2	Y2	Z2	X3	Y3	Z3	X4	Y4	Z4	X5	Y5	Z5	X6	Y6	Z6	X7	Y7	Z7	X8	Y8	Z8	X9	Y9	Z9	X10	Y10	Z10	X11	Y11	Z11	X12	Y12	Z12	X13	Y13	Z13	X14	Y14	Z14	X15	Y15	Z15	X16	Y16	Z16	X17	Y17	Z17	X18	Y18	Z18	X19	Y19	Z19	X20	Y20	Z20	X21	Y21	Z21	X22	Y22	Z22	X23	Y23	Z23	X24	Y24	Z24	X25	Y25	Z25	X26	Y26	Z26	X27	Y27	Z27	X28	Y28	Z28	X29	Y29	Z29	X30	Y30	Z30	X31	Y31	Z31	X32	Y32	Z32	X33	Y33	Z33	X34	Y34	Z34	X35	Y35	Z35	X36	Y36	Z36

751	6.25000	178.29001	1051.02563	330.24420	-47.41040	1013.14172	408.47952	29.80933	657.77002	428.27768	20.41276	614.49957	425.58658	-30.35641	666.60480	434.46567	-32.88213	621.16235	431.25095	-15.61742	525.28101	414.19516	-47.78141	537.46313	278.31952	13.43750	422.59756	404.46857	4.65350	380.26971	400.30392	-48.78765	427.90335	400.27911	-47.79683	384.86542	394.45248	10.90748	106.12878	331.24542	-21.47839	111.45578	250.88995	63.83583	65.72121	268.08990	-126.98914	59.96001	382.09775	-181.83478	76.89247	327.85803	-170.30621	61.54792	281.52911	181.33278	1035.22986	224.31125	-41.39189	1016.28076	122.77554	-24.47467	711.54065	81.28627	-41.88836	672.89056	79.23370	-81.36430	732.09497	68.33773	-92.80806	685.74677	70.55840	-131.42053	550.43817	84.37157	-143.14780	543.14539	206.85692	56.62103	415.01294	99.52764	85.81820	378.08353	107.32276	14.62949	371.94589	88.40870	51.13863	341.46194	94.63653	205.50275	224.90065	101.42265	170.00856	204.91629	231.38678	284.06332	226.81146	185.05859	112.90295	80.56087	198.76299	83.11646	85.91536	151.19263	132.80455	89.02804	82.34598
752	6.25833	171.38074	1052.34253	330.61639	-54.38088	1013.51544	408.68478	26.24309	658.23737	427.81580	17.12679	614.87860	424.99838	-34.00480	666.64142	433.87280	-36.03077	621.19580	430.63196	-17.77453	525.58533	413.40323	-49.90817	537.40656	277.52734	11.79105	423.03165	403.87921	3.12555	380.61612	399.74539	-50.43622	428.09103	399.59860	-49.24194	385.01715	393.96005	10.81437	106.24934	331.13489	-21.56398	111.46135	250.77002	63.78455	65.80019	268.03262	-127.01889	59.96498	382.01114	-181.86615	76.81042	327.77682	-170.32799	61.40627	281.43866	174.54298	1036.87195	224.69020	-47.95749	1018.30328	122.93124	-37.32777	714.51373	80.08471	-55.66185	676.45966	77.83424	-93.81960	736.67572	68.29693	-106.52720	690.55798	70.67201	-146.80928	555.62805	84.83109	-157.87372	548.19061	207.99867	37.52370	414.47211	100.04192	65.49257	376.59088	107.58427	-5.93535	372.78348	88.70090	29.57407	341.08789	94.81728	180.37511	219.71474	101.58104	144.02904	200.58890	231.40883	258.75360	218.95152	185.11148	83.08690	78.15385	198.57323	53.81856	84.20096	150.82718	103.48697	86.20772	82.17613
753	6.26667	164.49995	1053.52112	331.01065	-61.21512	1013.72919	408.78082	22.74693	658.71503	427.29453	13.87149	615.27478	424.39218	-37.58801	666.63806	433.36264	-39.36200	621.08307	429.92468	-19.85888	525.83228	412.57166	-52.03809	537.39722	276.69031	10.11493	423.43869	403.19077	1.65734	381.02145	399.18765	-52.18433	428.21237	398.96106	-50.82578	385.19531	393.29141	10.67660	106.34362	331.00845	-21.65369	111.44840	250.68370	63.78091	65.85711	267.96921	-127.04774	59.98846	381.92123	-181.91357	76.72723	327.70239	-170.37949	61.29697	281.38315	167.88924	1038.40820	224.90578	-54.61305	1020.13049	123.10851	-50.03638	717.54889	78.65072	-69.06882	679.93427	76.50715	-106.87564	741.15265	69.14473	-119.83813	695.17084	71.06035	-161.74527	560.69525	85.37227	-172.32930	553.38916	208.44637	18.12639	413.38440	100.03289	45.35722	374.83334	108.08289	-26.36695	373.33310	88.98459	8.16984	340.57477	95.08193	154.25230	214.02945	101.39585	118.04591	196.23726	231.69690	232.94063	210.61128	185.22728	52.34641	75.66056	198.08350	23.67686	82.89501	150.73325	73.22028	83.29208	82.05982
754	6.27500	157.62686	1054.60840	331.26611	-68.24355	1013.85443	408.90817	19.21960	659.15674	426.72961	10.70819	615.73944	423.72827	-41.12866	666.59924	432.86160	-42.57232	621.05695	429.33087	-22.05443	526.12854	411.78745	-54.17440	537.33875	275.83133	8.35628	423.84329	402.61343	0.09571	381.33322	398.56992	-53.88565	428.26462	398.26529	-52.26546	385.26059	392.74539	10.64845	106.44170	330.96655	-22.06305	111.47253	250.45522	63.75837	65.93157	267.91953	-127.21574	59.96281	381.78976	-181.97345	76.68855	327.63522	-170.42342	61.24526	281.30450	161.13649	1039.73438	225.16747	-61.23240	1021.82617	123.27721	-62.44756	720.58984	77.24310	-82.39127	683.15216	75.60780	-119.07828	745.50897	69.36033	-133.09698	699.62329	71.89220	-176.17459	565.73370	85.83073	-186.26889	558.49249	208.95984	-0.85116	412.30444	100.34079	24.45867	373.06058	107.91013	-46.62112	374.01624	89.48280	-15.26557	341.25958	96.99919	128.14198	208.29523	101.22952	91.53088	191.63037	231.91292	206.72704	202.01912	185.34711	21.68149	73.35704	198.35330	-6.83137	81.70457	150.71837	42.66417	80.42951	82.08324
755	6.28333	150.87724	1055.56067	331.50113	-75.29453	1014.02863	409.07568	15.64805	659.54657	426.26065	7.44458	616.09857	423.17874	-46.15892	665.81256	430.77051	-45.99991	620.86420	428.58426	-24.26673	526.41132	411.00000	-56.44761	537.15979	275.07260	6.61384	424.23132	402.01544	-1.42683	381.71054	398.06253	-55.56092	428.37399	397.73849	-53.85141	385.34628	392.16235	10.55148	106.48884	330.85483	-21.86907	111.45641	250.53810	63.72576	65.97664	267.86200	-127.13599	60.04800	381.79718	-182.00269	76.65386	327.57767	-170.42224	61.14042	281.26456	154.45140	1040.97900	225.29630	-67.82809	1023.30554	123.43542	-74.42773	723.59534	75.85538	-95.16109	686.64600	74.43764	-130.79131	749.61359	69.51769	-146.17123	703.73621	72.94308	-190.17543	570.45959	86.01974	-199.39354	563.40472	209.35326	-20.00023	411.32001	100.45057	4.17839	370.79990	108.14025	-68.61810	375.26660	91.42609	-36.42996	339.61319	97.13434	101.95637	202.29730	101.75958	64.51150	187.02888	232.00264	180.14755	193.22008	185.48286	-9.62572	71.57738	198.35492	-37.79128	80.68037	150.89648	11.60668	77.71614	82.19087
